<svg xmlns="http://www.w3.org/2000/svg" viewBox="0 0 25 25"><defs><style>.cls-1{fill:#1d2022;}</style></defs><title>Asset 11</title><g id="Layer_2" data-name="Layer 2"><g id="Layer_1-2" data-name="Layer 1"><path class="cls-1" d="M16.93,8.3l-6.82,6.36L8.3,12.84a1,1,0,0,0-1.36,0,1,1,0,0,0,0,1.36l2.5,2.5a1,1,0,0,0,.68.34,1.61,1.61,0,0,0,.68-.23l7.5-7a.85.85,0,0,0,0-1.36C17.84,8,17.27,7.84,16.93,8.3Z"/><path class="cls-1" d="M12.5,0A12.5,12.5,0,1,0,25,12.5,12.39,12.39,0,0,0,12.5,0Zm0,23A10.45,10.45,0,1,1,23,12.5,10.36,10.36,0,0,1,12.5,23Z"/></g></g></svg>
